<svg width="92" height="93" viewBox="0 0 92 93" fill="none" xmlns="http://www.w3.org/2000/svg">
<rect y="1.53717" width="91.4628" height="91.4628" rx="20" fill="#FBFBF3"/>
<path d="M26.415 58.2227C24.7874 56.556 23.9736 54.5312 23.9736 52.1484C23.9736 50.5599 24.3317 49.1211 25.0478 47.832C25.777 46.543 26.8382 45.5729 28.2314 44.9219C26.8642 44.0104 25.9723 43.0273 25.5556 41.9727C25.152 40.9049 24.9502 39.9089 24.9502 38.9844C24.9502 36.9271 25.7249 35.1758 27.2744 33.7305C28.8239 32.2721 31.0114 31.543 33.8369 31.543C36.6624 31.543 38.8499 32.2721 40.3994 33.7305C41.9489 35.1758 42.7236 36.9271 42.7236 38.9844C42.7236 39.9089 42.5153 40.9049 42.0986 41.9727C41.6949 43.0273 40.8095 43.9453 39.4423 44.7266C40.8356 45.5078 41.8837 46.543 42.5869 47.832C43.29 49.1211 43.6416 50.5599 43.6416 52.1484C43.6416 54.5312 42.7561 56.5625 40.9853 58.2422C39.2275 59.9089 36.7666 60.7422 33.6025 60.7422C30.4384 60.7422 28.0426 59.9023 26.415 58.2227ZM29.7548 51.7773C29.7548 53.1706 30.1129 54.2513 30.8291 55.0195C31.5582 55.7878 32.5608 56.1719 33.8369 56.1719C35.1129 56.1719 36.109 55.7878 36.8252 55.0195C37.5543 54.2513 37.9189 53.1706 37.9189 51.7773C37.9189 50.332 37.5478 49.2383 36.8056 48.4961C36.0765 47.7409 35.0869 47.3633 33.8369 47.3633C32.5869 47.3633 31.5908 47.7409 30.8486 48.4961C30.1194 49.2383 29.7548 50.332 29.7548 51.7773ZM31.2197 42.1289C31.8447 42.7799 32.7171 43.1055 33.8369 43.1055C34.9697 43.1055 35.8421 42.7799 36.4541 42.1289C37.0791 41.4779 37.3916 40.638 37.3916 39.6094C37.3916 38.4896 37.0791 37.6172 36.4541 36.9922C35.8421 36.3542 34.9697 36.0352 33.8369 36.0352C32.7171 36.0352 31.8382 36.3542 31.2002 36.9922C30.5752 37.6172 30.2627 38.4896 30.2627 39.6094C30.2627 40.638 30.5817 41.4779 31.2197 42.1289ZM59.7548 51.9531V60H54.6181V51.9531H46.6103V46.8555H54.6181V38.8477H59.7548V46.8555H67.7627V51.9531H59.7548Z" fill="#0F1820"/>
</svg>
